<svg id="Layer_1" data-name="Layer 1" xmlns="http://www.w3.org/2000/svg" viewBox="0 0 414.91 194.98"><defs><style>.cls-1,.cls-2{fill:#fff;}.cls-1{fill-rule:evenodd;}</style></defs><path class="cls-1" d="M137.4,177.12H151a5.53,5.53,0,0,1,5.61,5.41v12.38H136.28a3.36,3.36,0,0,1-3.41-3.3v-4.3a3.12,3.12,0,0,1,3.17-3.06h11.28l-1.2,2.51h-8.29a.74.74,0,0,0-.77.66v3.38a.74.74,0,0,0,.77.66h14.39v-8.12a2.9,2.9,0,0,0-3-2.77h-13.5Z"/><path class="cls-1" d="M249.13,170.65v24.26H229.31a3.37,3.37,0,0,1-3.42-3.3v-9.08a5.52,5.52,0,0,1,5.61-5.41h11.29l-1.66,3.45h-7.89a2.89,2.89,0,0,0-3,2.77v7.46a.74.74,0,0,0,.77.66h13.69V170.65Z"/><path class="cls-1" d="M179.48,194.91h4.39V182.53a5.53,5.53,0,0,0-5.61-5.41h-9.33l-1.66,3.45h9.25a2.89,2.89,0,0,1,3,2.77Z"/><rect class="cls-2" x="161.21" y="170.65" width="4.39" height="24.26"/><path class="cls-1" d="M124.6,194.91H129V182.53a5.54,5.54,0,0,0-5.61-5.41H94.6v17.79H99V181.23a.73.73,0,0,1,.76-.66h9.07a.74.74,0,0,1,.77.66v13.68H114V181.23a.74.74,0,0,1,.77-.66h6.88a2.89,2.89,0,0,1,3,2.77Z"/><path class="cls-1" d="M272.05,177.12H261a5.52,5.52,0,0,0-5.61,5.41v12.38h4.39V183.34a2.89,2.89,0,0,1,3-2.77h7.61Z"/><path class="cls-1" d="M215.85,177.12a5.53,5.53,0,0,1,5.61,5.41v12.38h-4.39V183.34a2.9,2.9,0,0,0-3-2.77H203.56v14.34h-4.4V177.13h16.69"/><polygon class="cls-1" points="189.32 178.25 193.71 175.75 193.71 194.91 189.32 194.91 189.32 178.25"/><polygon class="cls-1" points="193.71 173.24 193.71 170.61 189.32 170.61 189.32 175.74 193.71 173.24"/><path class="cls-1" d="M275.1,177.12h13.6a5.53,5.53,0,0,1,5.61,5.41v12.38H274a3.37,3.37,0,0,1-3.42-3.3v-4.3a3.13,3.13,0,0,1,3.18-3.06H285l-1.2,2.51h-8.3a.73.73,0,0,0-.76.66v3.38a.73.73,0,0,0,.76.66h14.39v-8.12a2.89,2.89,0,0,0-3-2.77H273.46Z"/><path class="cls-2" d="M51.88,194.65v-19c1.2-.09,2.26-.16,3.18-.2l2.51-.11c.74,0,1.45,0,2.13,0a17.19,17.19,0,0,1,4.45.46,4.27,4.27,0,0,1,2.41,1.49A4.59,4.59,0,0,1,67.3,180a4.72,4.72,0,0,1-.85,2.83A4.59,4.59,0,0,1,64,184.45v.06a5.5,5.5,0,0,1,3.26,1.64,4.56,4.56,0,0,1,1.19,3.22,6.56,6.56,0,0,1-.46,2.57,4,4,0,0,1-1.47,1.74,7,7,0,0,1-2.62,1,21.41,21.41,0,0,1-4,.32l-1.52,0-1.35,0-1.4-.06-1.65-.1-2.12-.13M54.45,184h6.64a4.54,4.54,0,0,0,2-.42,3.09,3.09,0,0,0,1.31-1.19,3.46,3.46,0,0,0,.45-1.78,3.16,3.16,0,0,0-.52-1.88,3,3,0,0,0-1.72-1.07,12.5,12.5,0,0,0-3.2-.33H57.66l-.79,0-1,.05c-.4,0-.86.06-1.41.11Zm0,8.8,1.8.1,1.36.06,1.08.05h1a14,14,0,0,0,3.63-.37,3.34,3.34,0,0,0,1.92-1.17,3.73,3.73,0,0,0,.57-2.18,3,3,0,0,0-1.16-2.51,5.75,5.75,0,0,0-3.46-.87H54.45Z"/><polygon class="cls-2" points="76.5 194.7 76.5 186.94 68.44 175.68 71.17 175.46 77.79 185.27 84.19 175.46 86.89 175.68 79.05 186.94 79.05 194.7 76.5 194.7"/><path class="cls-2" d="M279.54,130.41c-.74,0-1.37.05-2,.05H240c-.58,0-1.16,0-1.74,0a3.87,3.87,0,0,0-3.5,4.71,19.35,19.35,0,0,0,2.29,6.06,14.61,14.61,0,0,0,10.71,7.16,21.15,21.15,0,0,0,8.2-.34,12.56,12.56,0,0,0,8.14-5.89c.68-1.13,1.22-2.35,1.87-3.62.26,0,.62-.1,1-.1h7.16a7.47,7.47,0,0,1,.95,0,2.84,2.84,0,0,1,2.51,3.4,9.26,9.26,0,0,1-.7,2.1,25.12,25.12,0,0,1-12,12.23,30.67,30.67,0,0,1-11,2.95,33.56,33.56,0,0,1-11.82-.9c-9.66-2.56-16.06-8.65-19.29-18.07a41.11,41.11,0,0,1-2-14.4A35.08,35.08,0,0,1,224.4,111,28.65,28.65,0,0,1,239,96.8a26.25,26.25,0,0,1,9.23-2.15,31.3,31.3,0,0,1,9.93.85,27.82,27.82,0,0,1,15,10.13,32.48,32.48,0,0,1,6.2,14.61,34,34,0,0,1,.31,9.18c0,.26-.07.52-.14,1m-45.05-8.92c.5,0,.87.07,1.23.07H261a8.32,8.32,0,0,0,1.73-.17,3.46,3.46,0,0,0,2.54-4.52c-.33-.83-.63-1.68-1-2.5-3.37-7.53-11.3-11.13-19.6-8.09-5.42,2-8.42,6.16-9.82,11.61a9.6,9.6,0,0,0-.34,3.6"/><path class="cls-2" d="M178.21,113.34c-.54,0-.9.06-1.27.06-2.64,0-5.3,0-7.94,0a6.61,6.61,0,0,1-6.3-3.79A6.11,6.11,0,0,0,160,107a15.14,15.14,0,0,0-4.35-1.44,22.82,22.82,0,0,0-10.23.48,9,9,0,0,0-3,1.48,5.25,5.25,0,0,0-.45,7.84,12.15,12.15,0,0,0,3.31,2.17,29,29,0,0,0,5.88,1.88c3.46.77,6.95,1.44,10.4,2.25,2.21.53,4.39,1.2,6.55,1.88a20.66,20.66,0,0,1,6.19,3.18,14.53,14.53,0,0,1,6.12,11.82,21,21,0,0,1-.48,5.36,16.36,16.36,0,0,1-5.15,8.4,24.4,24.4,0,0,1-9.24,5.13,42.18,42.18,0,0,1-8.71,1.68,42.68,42.68,0,0,1-9-.07,32.47,32.47,0,0,1-10.54-2.8,21.79,21.79,0,0,1-4.81-3.06,19.22,19.22,0,0,1-6.83-14.65.82.82,0,0,1,.07-.3c0-.05.05-.09.14-.23a6.18,6.18,0,0,1,.84-.09c2.59,0,5.19,0,7.79,0a6.15,6.15,0,0,1,5.77,4,8.61,8.61,0,0,0,4.87,5.14,18.07,18.07,0,0,0,6.28,1.56,27.13,27.13,0,0,0,9.14-.89,10.84,10.84,0,0,0,4.21-2.13c2.93-2.44,2.49-7.13.23-9.22a12.59,12.59,0,0,0-3.72-2.39,34.57,34.57,0,0,0-6.22-1.88c-3.82-.86-7.66-1.65-11.46-2.56-1.7-.4-3.35-1-5-1.54a20.35,20.35,0,0,1-5.2-2.68,14.33,14.33,0,0,1-6.34-11,19.25,19.25,0,0,1,.34-6.15,12.68,12.68,0,0,1,2.22-4.71,20,20,0,0,1,8.84-6.51,32.83,32.83,0,0,1,7.68-1.9A46.27,46.27,0,0,1,156,94.7a29.67,29.67,0,0,1,11.47,2.9,19.15,19.15,0,0,1,10.71,14.48,10.53,10.53,0,0,1,.08,1.26"/><path class="cls-2" d="M.15,138H1.31c2.44,0,4.88.06,7.32,0a6.36,6.36,0,0,1,6.09,4.22,7.72,7.72,0,0,0,3.87,4.45,17.26,17.26,0,0,0,7.28,2,27.51,27.51,0,0,0,9-.87,11.82,11.82,0,0,0,3.47-1.53,6.42,6.42,0,0,0,.48-10.34,15.93,15.93,0,0,0-4-2.23,46.71,46.71,0,0,0-6.89-1.86,129.3,129.3,0,0,1-13.27-3.18,25.41,25.41,0,0,1-6.73-3.16,14.42,14.42,0,0,1-6.52-11.27,19.45,19.45,0,0,1,.34-6,12.64,12.64,0,0,1,2.2-4.71,19.91,19.91,0,0,1,9-6.59A33.21,33.21,0,0,1,20.42,95a45.75,45.75,0,0,1,10-.31,29.73,29.73,0,0,1,11.18,2.8A19.2,19.2,0,0,1,52.49,112a4.5,4.5,0,0,1,.07.63c0,.16,0,.32,0,.57a5,5,0,0,1-.86.17c-2.92,0-5.83,0-8.75,0a6.24,6.24,0,0,1-5.68-3.45,7.19,7.19,0,0,0-3.58-3.22,18.05,18.05,0,0,0-7.42-1.48,21,21,0,0,0-6.44.82,10.17,10.17,0,0,0-3,1.47,5.26,5.26,0,0,0-.41,8,13.08,13.08,0,0,0,3.18,2.07,29.89,29.89,0,0,0,6,1.92c3,.66,6,1.27,9,1.92a68.18,68.18,0,0,1,7.94,2.21,21.65,21.65,0,0,1,6.17,3.23,14.48,14.48,0,0,1,6,11.7,21.06,21.06,0,0,1-.47,5.37,16.37,16.37,0,0,1-5.24,8.51,24.54,24.54,0,0,1-9.26,5.09,43.74,43.74,0,0,1-8.72,1.66,42,42,0,0,1-9-.09,32.34,32.34,0,0,1-10.38-2.77,21.18,21.18,0,0,1-6-4.12A18.67,18.67,0,0,1,.14,140.36a5.29,5.29,0,0,1,0-2.41"/><path class="cls-2" d="M300.75,105.25a35.89,35.89,0,0,0,2.44-2.88,20.43,20.43,0,0,1,9.05-6.49,20.18,20.18,0,0,1,6.2-1.25,29.28,29.28,0,0,1,10.36,1.19,19.58,19.58,0,0,1,1.93.73A16.85,16.85,0,0,1,341,109a25.67,25.67,0,0,1,.66,5.66q0,19.14,0,38.28a5.83,5.83,0,0,1-.28,1.86,3.76,3.76,0,0,1-3.37,2.75,44,44,0,0,1-6.18,0,4.13,4.13,0,0,1-3.71-3.93c0-.47,0-.95,0-1.43V123.77a62.54,62.54,0,0,0-.64-9.17,15.35,15.35,0,0,0-1.08-3.81,8.21,8.21,0,0,0-5-4.74,15.37,15.37,0,0,0-5.78-.8,14.05,14.05,0,0,0-4.07.63,13.44,13.44,0,0,0-6.79,4.74,17.1,17.1,0,0,0-3.43,9.41c0,.73,0,1.48,0,2.22q0,15,0,30a11.66,11.66,0,0,1-.17,2.05,4.09,4.09,0,0,1-3.63,3.28c-2,.06-4,.09-6,0a4.17,4.17,0,0,1-3.72-4.08c0-.37,0-.74,0-1.11V101.57c0-.42,0-.85,0-1.27a4.22,4.22,0,0,1,4-4,47.69,47.69,0,0,1,4.93,0,4.13,4.13,0,0,1,3.82,3.63c.09.68.06,1.37.09,2.06a15.24,15.24,0,0,0,.26,3.28"/><path class="cls-2" d="M103.79,149.44a6.89,6.89,0,0,0-1.53,1.77c-3,4.21-7.11,6.54-12,7.69a15.12,15.12,0,0,1-3.14.43A33,33,0,0,1,76,157.88a16.25,16.25,0,0,1-10.33-9.43,28.14,28.14,0,0,1-1.88-6.86,43.6,43.6,0,0,1-.42-6.65v-33.5a11.32,11.32,0,0,1,.06-1.43,4.13,4.13,0,0,1,3.89-3.73c1.85-.09,3.72-.08,5.57,0a4.15,4.15,0,0,1,3.95,3.85c.05.58,0,1.17,0,1.75q0,13.34,0,26.67a76.82,76.82,0,0,0,.55,9.83,25.24,25.24,0,0,0,.94,4,8.38,8.38,0,0,0,5.22,5.4,12.86,12.86,0,0,0,3.86.86,17.86,17.86,0,0,0,5.69-.4c5.5-1.3,8.82-4.77,10-10.25a29.93,29.93,0,0,0,.67-6.62q0-14.76,0-29.53c0-.53,0-1.06,0-1.59a4.26,4.26,0,0,1,4-4c1.75,0,3.5-.05,5.25,0a4.29,4.29,0,0,1,4.26,4.09c0,.42,0,.85,0,1.27q0,25.34,0,50.66a8.89,8.89,0,0,1-.2,2.19,3.81,3.81,0,0,1-3.44,3.08,37.81,37.81,0,0,1-6,0,4,4,0,0,1-3.61-4c0-1.05,0-2.11-.08-3.17a5.29,5.29,0,0,0-.23-1"/><path class="cls-2" d="M218.2,147.32c0,.65.05,1.22.05,1.8,0,1.37,0,2.75,0,4.13a5.67,5.67,0,0,1-1,3.29,2.69,2.69,0,0,1-1.9,1.3,39.82,39.82,0,0,1-13.6-.33,13.64,13.64,0,0,1-3.56-1.33,9.46,9.46,0,0,1-4.65-5.61,22.18,22.18,0,0,1-.91-5c-.12-1.42-.17-2.86-.17-4.29q0-14.61,0-29.22a13.72,13.72,0,0,0-.13-2.22,4.23,4.23,0,0,0-3.95-3.52c-.58,0-1.16,0-1.74,0a4.38,4.38,0,0,1-4.44-4.29,9.29,9.29,0,0,1,.14-2.36,4.17,4.17,0,0,1,4-3.41c.59,0,1.17,0,1.75,0A4.37,4.37,0,0,0,192.4,92c0-1.27,0-2.54,0-3.81q0-.8.06-1.59a4.25,4.25,0,0,1,4.12-3.89q2.63-.12,5.25,0a4.23,4.23,0,0,1,4.09,4.24c0,1.32,0,2.65,0,4a13.56,13.56,0,0,0,.06,1.43,4.39,4.39,0,0,0,4.31,3.91c1.11,0,2.23.06,3.34,0a4.39,4.39,0,0,1,4.59,4.59c0,.37,0,.74,0,1.11a4.36,4.36,0,0,1-4.34,4.37c-1.21.06-2.43,0-3.65,0a4.17,4.17,0,0,0-2.88,1.16,4.39,4.39,0,0,0-1.38,2.79,10.53,10.53,0,0,0-.05,1.26q0,14.07.05,28.12c0,1.11.09,2.22.2,3.33a7,7,0,0,0,.43,1.68,4.24,4.24,0,0,0,3.61,2.73,17.84,17.84,0,0,0,3,.19c1.58,0,3.17-.17,4.95-.27"/><path class="cls-2" d="M385.07,63.81l-25.2-25.2a7.46,7.46,0,0,1,0-10.54L385.76,2.18A7.45,7.45,0,0,1,396.3,12.72L375.69,33.34l19.92,19.93Z"/><path class="cls-2" d="M364.94,159.36a7.45,7.45,0,0,1-5.27-12.72l37.24-37.25L360,72.46l10.54-10.55,42.2,42.21a7.44,7.44,0,0,1,0,10.54l-42.51,42.52a7.43,7.43,0,0,1-5.27,2.18"/></svg>